<svg width="17" height="19" viewBox="0 0 17 19" fill="none" xmlns="http://www.w3.org/2000/svg">
<path fill-rule="evenodd" clip-rule="evenodd" d="M7.8946 9.11066C10.4075 9.11066 12.4447 7.07117 12.4447 4.55533C12.4447 2.03949 10.4075 0 7.8946 0C5.38166 0 3.34451 2.03949 3.34451 4.55533C3.34451 7.07117 5.38166 9.11066 7.8946 9.11066ZM0.197088 12.8996C0.682991 10.8631 2.06275 9.38099 3.50363 9.18853L0 9.18853H4.20007L4.20008 9.18853H4.13272C4.17801 9.19474 4.22324 9.20233 4.26838 9.21132L4.81647 9.39423C5.63457 10.183 6.7469 10.668 7.97238 10.668C9.18976 10.668 10.2955 10.1894 11.112 9.40984L11.7447 9.21078V9.21323C11.793 9.2034 11.8414 9.19518 11.8898 9.18853H11.8154L11.8154 9.18853H16.0225L12.5189 9.18853C13.9598 9.38099 15.3396 10.8631 15.8255 12.8996C15.9812 13.5525 16.0293 14.1962 15.9833 14.7965L15.9448 14.9508L15.867 15.0287L15.8897 15.0514C15.9258 15.2582 15.9448 15.4719 15.9448 15.6906C15.9448 17.5183 14.6215 19 12.9891 19C12.9631 19 12.9372 18.9996 12.9114 18.9989V19L10.3447 19H2.31534C0.990823 18.6725 3.57628e-06 17.35 3.57628e-06 15.7684C3.57628e-06 15.5418 0.0203557 15.3204 0.0591254 15.1066H0.0718749C-0.020299 14.4204 0.0141253 13.6664 0.197088 12.8996Z" fill="white"/>
</svg>
