<svg width="19" height="16" viewBox="0 0 19 16" fill="none" xmlns="http://www.w3.org/2000/svg">
<path d="M2.16711 2.69113L8.76923 4.15902H9.27321L9.5252 3.86544L9.4244 3.52294L9.17241 3.32722L3.62865 2.15291L9.4244 0L19 3.32722L9.67639 7.29052H9.5252L2.16711 4.5313V10.2752H1.91512V4.43681L0 3.71865V3.52294L1.85819 2.8097V1.95719L9.07162 3.52294L9.17241 3.71865L9.02122 3.86544L2.16711 2.34862V2.69113Z" fill="white"/>
<path d="M3.42706 9.3945V5.38226L9.5252 7.73089H9.67639L15.4721 5.38226V9.54128L9.4244 11.9878L3.42706 9.3945Z" fill="white"/>
<path d="M1.51194 10.8624L1.91512 10.5688H2.16711L2.57029 10.8624V11.5474L2.4695 11.6942V13.1621L2.57029 13.3089V15.5596L2.16711 16H1.91512L1.51194 15.5596V13.3089L1.61273 13.1621V11.6942L1.51194 11.5474V10.8624Z" fill="white"/>
</svg>
