<svg width="17" height="15" viewBox="0 0 17 15" fill="none" xmlns="http://www.w3.org/2000/svg">
<path fill-rule="evenodd" clip-rule="evenodd" d="M5.48387 2.0428H0.104455H0V4.6109L0.104455 5.60311L0.522273 6.44942L1.41014 7.73346L2.42857 8.5214L3.47312 8.92996L4.25653 9.10506H7.54685V8.25875L7.72965 7.85019L8.09524 7.52918L8.27803 7.41245H8.74808L8.93088 7.52918L9.32258 7.85019L9.47926 8.25875V9.10506H13.0829L13.7358 8.92996L14.5714 8.5214L15.616 7.73346L16.5038 6.44942L16.7911 5.60311L17 4.6109V2.0428H11.4378V1.60506L11.2028 0.933852L10.8633 0.525292L10.4716 0.20428L10.0015 0H6.89401L6.5023 0.20428L6.1106 0.525292L5.79724 0.933852L5.48387 1.60506V2.0428ZM0 14.8541V6.59533L0.235023 7.06226L0.652842 7.73346L1.17512 8.3463L2.03687 9.07588L3.39478 9.5428L4.25653 9.68872H7.49462V10.9144L7.65131 11.2354L7.91244 11.5856L8.25192 11.7607H8.72197L8.9831 11.5856L9.32258 11.2354L9.47926 10.9144V9.68872H13.2135L13.8402 9.5428L14.8587 9.07588L15.7988 8.3463L16.3472 7.73346L16.7911 7.06226L17 6.6537V14.8541L16.9217 15H0.0522273L0 14.8541ZM8.33026 8.05447L8.09524 8.31712V10.7977L8.19969 11.0019L8.33026 11.0895H8.66974L8.82642 11.0019L8.95699 10.7977L8.93088 8.31712L8.69585 8.05447H8.33026ZM6.65899 2.13035V1.78016L6.8679 1.48833L7.12904 1.28405H9.81874L10.1321 1.54669L10.3149 1.78016V2.13035H6.65899Z" fill="white"/>
</svg>
