<svg width="15" height="15" viewBox="0 0 15 15" fill="none" xmlns="http://www.w3.org/2000/svg">
<path fill-rule="evenodd" clip-rule="evenodd" d="M12.5127 0.0129185V0.192309L10.9439 1.73077L11.403 3.5L13.278 4.03846L14.7321 2.42308L14.9706 2.36316C14.99 2.49569 15 2.63128 15 2.76923C15 4.29863 13.7665 5.53846 12.2449 5.53846C11.969 5.53846 11.7026 5.49769 11.4512 5.42183L11.1735 5.57693L5.43368 11.3462L5.42143 11.5308C5.47937 11.7544 5.5102 11.9889 5.5102 12.2308C5.5102 13.7602 4.2767 15 2.7551 15C1.2335 15 0 13.7602 0 12.2308C0 10.7014 1.2335 9.46153 2.7551 9.46153C3.02871 9.46153 3.293 9.50162 3.54248 9.57627L3.71174 9.53847L9.4898 3.69231L9.57418 3.45201C9.51908 3.23361 9.4898 3.00486 9.4898 2.76923C9.4898 1.23983 10.7233 0 12.2449 0C12.3353 0 12.4246 0.00437249 12.5127 0.0129185ZM5.85528 12.0364C5.85505 12.0363 5.85482 12.0362 5.8546 12.0361V11.5385L6.79954 10.5887C7.0001 10.6314 7.20808 10.6538 7.42129 10.6538C9.06969 10.6538 10.406 9.3107 10.406 7.65385C10.406 7.42833 10.3812 7.20862 10.3343 6.99732L11.4413 5.88461H11.764C11.764 5.88461 11.764 5.88462 11.764 5.88462H12.0153L11.977 6L11.9388 6.19231L12.0536 6.57693L13.5459 7.03847V8.11539L12.0536 8.53847L11.9388 9.11539L12.9719 10.2308L12.4362 11.1154L10.9821 10.7308L10.5995 11.1154L10.9821 12.6539L10.0255 13.1923L8.91582 12.1154L8.38011 12.2308L7.95919 13.7692H6.84949L6.65817 12.8846L6.42857 12.2308L6.00766 12.1539L5.85459 12.0385L5.85528 12.0364ZM9.10433 3.23643C9.10527 3.2368 9.10621 3.23716 9.10715 3.23753V3.5L7.94713 4.70026C7.77643 4.66976 7.60071 4.65385 7.42129 4.65385C5.77289 4.65385 4.4366 5.99699 4.4366 7.65385C4.4366 7.83145 4.45195 8.00545 4.4814 8.17457L3.48215 9.15384L3.21433 9.11539H2.94643L2.8699 8.96154L2.71684 8.53847L2.18112 8.34616L1.30102 8.15385L1.26276 8.07693V7.03847L2.79337 6.57693L2.83163 6.34616L2.90817 6.07693L1.83674 5V4.92308L2.33419 4L3.90306 4.38462L4.17092 4.07693L4.24745 3.96154L3.90306 2.46154L4.78317 1.92308L5.93112 3.03847L6.16072 2.96154L6.46684 2.88462L6.88776 1.42308H7.95919L8.41837 2.92308L8.87755 3.03847L8.99235 2.92308H9.10715V3.23077L9.10433 3.23643ZM1.18623 11.9231L2.33419 10.7692L3.8648 11.2308L4.20919 12.7308L3.09949 13.8077L1.56888 13.3846L1.18623 11.9231Z" fill="white"/>
</svg>
